<?xml version="1.0" encoding="utf-8"?>
<!-- Generator: Adobe Illustrator 16.0.0, SVG Export Plug-In . SVG Version: 6.00 Build 0)  -->
<!DOCTYPE svg PUBLIC "-//W3C//DTD SVG 1.1//EN" "http://www.w3.org/Graphics/SVG/1.1/DTD/svg11.dtd">
<svg version="1.1" id="Layer_1" xmlns="http://www.w3.org/2000/svg" xmlns:xlink="http://www.w3.org/1999/xlink" x="0px" y="0px"
	 width="118.971px" height="112.981px" viewBox="0 0 118.971 112.981" enable-background="new 0 0 118.971 112.981"
	 xml:space="preserve">
<g>
	<path fill="#FFFFFF" d="M92.795,0h-10.01v26.482H0.023v10.761h82.763v3.095c3.254,0.011,6.588,0.022,10.01,0.035V0z"/>
	<path fill="#FFFFFF" d="M92.795,65.758V53.926c-3.252-0.011-6.6-0.023-10.01-0.038v11.871H92.795z"/>
	<polygon fill="#FFFFFF" points="0.023,23.695 10.01,23.695 10.01,0 0,0 0,23.695 	"/>
	<polygon fill="#FFFFFF" points="9.616,40.435 10.01,40.425 10.01,40.031 0.023,40.031 0,40.031 0,65.758 10.01,65.758 
		10.01,51.618 9.526,51.619 	"/>
	<path fill="#FFFFFF" d="M118.839,77.37V55.041c0-1.315,0.037-2.555,0.074-3.71c0.109-3.595,0.199-6.435-1.072-7.751
		c-0.717-0.741-1.965-1.106-3.816-1.115c-28.161-0.134-51.785-0.201-70.218-0.201c-21.244,0-29.621,0.092-32.207,0.13l-0.058,7.223
		l1.802-0.002v31.228h-1.81v8.076c15.607-0.002,97.231-0.023,99.95-0.023C112.22,88.782,119.335,87.43,118.839,77.37z
		 M109.271,56.783l-0.1,17.536c0.176,1.957-0.014,3.275-0.564,3.826c-0.322,0.322-0.93,0.695-2.761,0.695
		c-0.51,0-0.898-0.031-0.898-0.031l-5.674,0.004l-75.756-0.254V54.52l-2.977-2.876l4.076-0.003c9.618,0,23.09,0.07,37.353,0.145
		c13.704,0.071,27.876,0.145,39.812,0.162h0.391c0.859,0,1.594-0.005,2.307-0.01c0.674-0.004,1.328-0.009,2.049-0.009l0.955,0.003
		c0.433,0.002,0.833,0.187,1.134,0.519C109.5,53.432,109.369,55.808,109.271,56.783z"/>
</g>
<g>
	<path fill="#FFFFFF" d="M11.9,102.963h7.339v-7.314h2.529v17.332h-2.529v-7.539H11.9v7.539H9.396V95.649H11.9V102.963z"/>
	<path fill="#FFFFFF" d="M27.945,107.157v-2.289h3.003v2.289H27.945z"/>
	<path fill="#FFFFFF" d="M42.554,95.649c5.678,0,8.53,4.338,8.53,8.678s-2.852,8.654-8.53,8.654H36.33V95.649H42.554z
		 M42.554,110.477c4.017,0,6.05-3.076,6.05-6.15s-2.033-6.174-6.05-6.174h-3.719v12.324H42.554z"/>
	<path fill="#FFFFFF" d="M60.832,104.178h2.927c2.107,0,3.148-1.512,3.148-3.025c0-1.488-1.041-3-3.148-3h-3.844v14.828h-2.48
		V95.624h6.324c3.768,0,5.652,2.777,5.652,5.529c0,2.455-1.512,4.785-4.488,5.307l5.48,6.521h-3.248l-6.323-7.613V104.178z"/>
	<path fill="#FFFFFF" d="M78.118,110.477h8.059v2.504H75.588V95.649h10.562v2.504h-8.033v4.885h7.859v2.529h-7.859V110.477z"/>
</g>
</svg>
